<?xml version="1.0" encoding="iso-8859-1"?>
<!-- Uploaded to: SVG Repo, www.svgrepo.com, Generator: SVG Repo Mixer Tools -->
<svg fill="#000000" height="800px" width="800px" version="1.1" id="Layer_1" xmlns="http://www.w3.org/2000/svg" xmlns:xlink="http://www.w3.org/1999/xlink" 
	 viewBox="0 0 512 512" xml:space="preserve">
<g>
	<g>
		<path d="M420.917,328.69c-26.343,0-50.098,11.254-66.744,29.192l-173.405-86.101c0.901-5.13,1.397-10.398,1.397-15.781
			c0-5.383-0.497-10.651-1.397-15.781l173.405-86.101c16.646,17.938,40.401,29.192,66.744,29.192
			c50.223,0,91.083-40.86,91.083-91.084c0-50.223-40.86-91.083-91.083-91.083c-50.224,0-91.084,40.86-91.084,91.083
			c0,5.384,0.497,10.652,1.397,15.782l-173.404,86.1c-16.645-17.939-40.401-29.192-66.743-29.192C40.86,164.917,0,205.777,0,256.001
			c0,50.223,40.86,91.083,91.083,91.083c26.343,0,50.098-11.253,66.743-29.192l173.405,86.1c-0.901,5.131-1.397,10.398-1.397,15.782
			c0,50.223,40.86,91.083,91.084,91.083c50.223,0,91.083-40.86,91.083-91.083C512,369.55,471.14,328.69,420.917,328.69z
			 M420.917,58.369c18.67,0,33.858,15.188,33.858,33.858c0,18.67-15.188,33.859-33.858,33.859s-33.859-15.189-33.859-33.859
			C387.059,73.557,402.248,58.369,420.917,58.369z M91.083,289.858c-18.67,0-33.858-15.188-33.858-33.858
			c0-18.67,15.188-33.859,33.858-33.859c18.67,0,33.858,15.189,33.858,33.859C124.94,274.67,109.752,289.858,91.083,289.858z
			 M420.917,453.632c-18.67,0-33.859-15.188-33.859-33.858s15.189-33.859,33.859-33.859s33.858,15.189,33.858,33.859
			S439.587,453.632,420.917,453.632z"/>
	</g>
</g>
</svg>